<svg width="38" height="30" viewBox="0 0 38 30" fill="none" xmlns="http://www.w3.org/2000/svg">
<path d="M32.0498 2.41576C29.595 1.27883 27.0046 0.467391 24.3433 0.00165863C24.3192 -0.00243923 24.2944 0.00109995 24.2724 0.0117897C24.2503 0.0224794 24.2321 0.0397947 24.2203 0.0613545C23.8866 0.658314 23.5175 1.43914 23.2596 2.05042C20.3909 1.61108 17.4729 1.61108 14.6042 2.05042C14.3165 1.36946 13.9911 0.705385 13.6294 0.0613545C13.6173 0.0400308 13.599 0.022915 13.577 0.0122597C13.5551 0.00160427 13.5304 -0.00209141 13.5064 0.00165863C10.8444 0.464899 8.25351 1.27676 5.79982 2.41576C5.77882 2.42385 5.76126 2.43904 5.75013 2.45874C0.842747 9.85865 -0.503589 17.0771 0.156565 24.2048C0.158931 24.2382 0.180227 24.2716 0.206254 24.2931C3.0639 26.4293 6.26025 28.0603 9.659 29.1165C9.683 29.1242 9.70878 29.1239 9.73261 29.1158C9.75644 29.1076 9.77707 29.092 9.7915 29.0712C10.5203 28.0683 11.1686 27.0105 11.727 25.8977C11.7386 25.8748 11.7426 25.8487 11.7384 25.8233C11.7341 25.7979 11.7218 25.7746 11.7033 25.7569C11.6911 25.7452 11.6766 25.7363 11.6608 25.7306C10.6413 25.3352 9.65402 24.8602 8.70781 24.3098C8.68138 24.2947 8.66173 24.2699 8.65292 24.2406C8.64411 24.2112 8.64682 24.1796 8.66049 24.1522C8.66854 24.1345 8.68071 24.1189 8.69598 24.1069C8.89474 23.9564 9.09349 23.7988 9.28278 23.6412C9.29951 23.6277 9.31957 23.6189 9.34083 23.616C9.36208 23.6131 9.38373 23.616 9.40346 23.6245C15.6004 26.4804 22.3084 26.4804 28.4296 23.6245C28.4501 23.6156 28.4725 23.6124 28.4946 23.6154C28.5167 23.6183 28.5376 23.6273 28.555 23.6412C28.7443 23.7988 28.9431 23.9564 29.1418 24.1069C29.1579 24.1187 29.1709 24.1345 29.1795 24.1526C29.1881 24.1708 29.1921 24.1908 29.1912 24.2109C29.1902 24.231 29.1844 24.2506 29.1741 24.2678C29.1639 24.2851 29.1495 24.2995 29.1324 24.3098C28.1883 24.8652 27.1997 25.3397 26.1771 25.7282C26.1607 25.7342 26.1459 25.7437 26.1337 25.7561C26.1214 25.7684 26.112 25.7834 26.1061 25.7998C26.1006 25.8158 26.0984 25.8327 26.0996 25.8495C26.1008 25.8664 26.1055 25.8828 26.1132 25.8977C26.681 27.0081 27.3317 28.0683 28.0463 29.0712C28.0607 29.092 28.0814 29.1076 28.1052 29.1158C28.129 29.1239 28.1548 29.1242 28.1788 29.1165C31.5832 28.0636 34.7848 26.4324 37.6458 24.2931C37.6601 24.2831 37.672 24.27 37.6806 24.2547C37.6892 24.2394 37.6943 24.2223 37.6954 24.2048C38.4857 15.9643 36.3728 8.80561 32.0971 2.46113C32.0928 2.45065 32.0864 2.4412 32.0782 2.43338C32.0701 2.42557 32.0604 2.41957 32.0498 2.41576ZM12.6522 19.8637C10.7853 19.8637 9.24966 18.1349 9.24966 16.0145C9.24966 13.8917 10.7569 12.1629 12.6522 12.1629C14.5617 12.1629 16.0831 13.906 16.0547 16.0145C16.0547 18.1349 14.5475 19.8637 12.6522 19.8637ZM25.2306 19.8637C23.3661 19.8637 21.8281 18.1349 21.8281 16.0145C21.8281 13.8917 23.3353 12.1629 25.2306 12.1629C27.1401 12.1629 28.6639 13.906 28.6331 16.0145C28.6331 18.1349 27.1401 19.8637 25.2306 19.8637Z" fill="white"/>
</svg>
