<svg width="30" height="30" viewBox="0 0 30 30" fill="none" xmlns="http://www.w3.org/2000/svg">
<path d="M15.4348 9.70529C12.7611 9.70529 10.5791 11.8873 10.5791 14.561C10.5791 17.2348 12.7611 19.4168 15.4348 19.4168C18.1086 19.4168 20.2906 17.2348 20.2906 14.561C20.2906 11.8873 18.1086 9.70529 15.4348 9.70529ZM29.9984 14.561C29.9984 12.5503 30.0166 10.5577 29.9037 8.55055C29.7908 6.21921 29.259 4.15014 27.5542 2.44535C25.8457 0.736913 23.7803 0.208719 21.449 0.0957942C19.4382 -0.0171302 17.4456 0.00108351 15.4385 0.00108351C13.4277 0.00108351 11.4351 -0.0171302 9.42799 0.0957942C7.09665 0.208719 5.02758 0.740556 3.32279 2.44535C1.61435 4.15379 1.08616 6.21921 0.973236 8.55055C0.860311 10.5613 0.878525 12.5539 0.878525 14.561C0.878525 16.5682 0.860311 18.5644 0.973236 20.5715C1.08616 22.9029 1.618 24.9719 3.32279 26.6767C5.03123 28.3852 7.09665 28.9134 9.42799 29.0263C11.4388 29.1392 13.4313 29.121 15.4385 29.121C17.4493 29.121 19.4418 29.1392 21.449 29.0263C23.7803 28.9134 25.8494 28.3815 27.5542 26.6767C29.2626 24.9683 29.7908 22.9029 29.9037 20.5715C30.0203 18.5644 29.9984 16.5718 29.9984 14.561ZM15.4348 22.0323C11.3003 22.0323 7.96362 18.6955 7.96362 14.561C7.96362 10.4266 11.3003 7.08982 15.4348 7.08982C19.5693 7.08982 22.9061 10.4266 22.9061 14.561C22.9061 18.6955 19.5693 22.0323 15.4348 22.0323ZM23.212 8.52869C22.2467 8.52869 21.4672 7.74915 21.4672 6.78383C21.4672 5.81851 22.2467 5.03897 23.212 5.03897C24.1774 5.03897 24.9569 5.81851 24.9569 6.78383C24.9572 7.01305 24.9123 7.24007 24.8247 7.4519C24.7371 7.66373 24.6086 7.85619 24.4465 8.01828C24.2844 8.18036 24.0919 8.30887 23.8801 8.39646C23.6683 8.48405 23.4413 8.52898 23.212 8.52869Z" fill="white"/>
</svg>
