<svg width="37" height="30" viewBox="0 0 37 30" fill="none" xmlns="http://www.w3.org/2000/svg">
<path d="M36.5693 3.45441C35.2307 4.03816 33.7926 4.43259 32.2807 4.61087C33.8407 3.69232 35.0077 2.24663 35.5641 0.543548C34.0985 1.40022 32.4945 2.00323 30.8218 2.32635C29.697 1.14444 28.2071 0.361049 26.5834 0.0978056C24.9598 -0.165438 23.2933 0.106195 21.8426 0.870531C20.3919 1.63487 19.2382 2.84914 18.5607 4.32484C17.8831 5.80053 17.7196 7.45507 18.0955 9.03159C15.1258 8.88486 12.2207 8.12528 9.56868 6.80215C6.91664 5.47901 4.57694 3.6219 2.70143 1.35133C2.06014 2.43995 1.69141 3.70211 1.69141 5.04631C1.69069 6.2564 1.9935 7.44796 2.57298 8.51526C3.15245 9.58256 3.99067 10.4926 5.01327 11.1646C3.82733 11.1275 2.66756 10.8122 1.63048 10.2448V10.3395C1.63036 12.0367 2.22693 13.6817 3.31896 14.9953C4.41099 16.3089 5.93122 17.2103 7.6217 17.5465C6.52155 17.8395 5.36812 17.8826 4.24853 17.6727C4.72549 19.133 5.65455 20.41 6.90565 21.3249C8.15675 22.2398 9.66727 22.7469 11.2257 22.775C8.58015 24.8187 5.31289 25.9274 1.94952 25.9225C1.35374 25.9226 0.758457 25.8884 0.166748 25.8199C3.58076 27.9801 7.55491 29.1265 11.6137 29.1221C25.3533 29.1221 32.8643 17.9235 32.8643 8.21119C32.8643 7.89565 32.8563 7.57695 32.8419 7.26141C34.3029 6.22166 35.564 4.93413 36.5661 3.45914L36.5693 3.45441Z" fill="white"/>
</svg>
