<svg width="18" height="15" viewBox="0 0 18 15" fill="none" xmlns="http://www.w3.org/2000/svg">
<path d="M2.99992 -0.00012207C2.20427 -0.00012207 1.44121 0.310207 0.878603 0.862597C0.315994 1.41499 -7.62939e-05 2.16419 -7.62939e-05 2.94539V3.24141L8.99992 7.99988L17.9999 3.24288V2.94539C17.9999 2.16419 17.6839 1.41499 17.1212 0.862597C16.5586 0.310207 15.7956 -0.00012207 14.9999 -0.00012207H2.99992Z" fill="#0E0D0D"/>
<path d="M17.9999 4.99988L9.35542 9.65694C9.24616 9.71579 9.12401 9.74659 8.99992 9.74659C8.87584 9.74659 8.75369 9.71579 8.64442 9.65694L-7.62939e-05 4.99988V11.9982C-7.62939e-05 12.7943 0.315994 13.5578 0.878603 14.1207C1.44121 14.6836 2.20427 14.9999 2.99992 14.9999H14.9999C15.7956 14.9999 16.5586 14.6836 17.1212 14.1207C17.6839 13.5578 17.9999 12.7943 17.9999 11.9982V4.99988Z" fill="#0E0D0D"/>
</svg>
