<svg width="54" height="54" viewBox="0 0 54 54" fill="none" xmlns="http://www.w3.org/2000/svg">
<path d="M27.1269 51.3397C13.5923 51.3397 2.61133 40.3588 2.61133 26.8242C2.61133 13.2895 13.5923 2.30859 27.1269 2.30859C40.6615 2.30859 51.5999 13.247 51.5999 26.7816C51.5999 40.3588 40.6615 51.3397 27.1269 51.3397Z" fill="white"/>
<path d="M44.6626 13.1184C52.2386 22.8224 50.4935 36.7827 40.7895 44.3587C31.0854 51.9347 17.1251 50.1896 9.54916 40.4855C1.97317 30.7815 3.7182 16.8212 13.3797 9.24523C23.1263 1.66925 37.0866 3.41428 44.6626 13.1184Z" fill="url(#paint0_linear_1_31)"/>
<path d="M38.4921 14.0978V32.527C38.4921 34.9531 36.5768 36.9535 34.1934 36.9535C31.8099 36.9535 29.8946 34.9531 29.8946 32.527V16.609L24.1914 18.2689V27.1217C24.1914 29.5477 22.2761 31.5481 19.8926 31.5481C17.5092 31.5481 15.5939 29.5477 15.5939 27.1217V20.78L9.89062 22.3974V27.0791C9.89062 32.7399 14.3596 37.294 19.8501 37.294C21.6377 37.294 23.2976 36.8258 24.7447 35.9745C26.1492 39.9328 29.8095 42.7419 34.1508 42.7419C39.6413 42.7419 44.1103 38.1452 44.1103 32.527V12.4805L38.4921 14.0978Z" fill="white"/>
<path d="M27.1276 0.0947266C12.4013 0.0947266 0.441406 12.0546 0.441406 26.8235C0.441406 41.5924 12.4013 53.5523 27.1276 53.5523C41.854 53.5523 53.8138 41.5924 53.8138 26.8235C53.8138 12.0546 41.854 0.0947266 27.1276 0.0947266ZM27.1276 51.3391C13.593 51.3391 2.61206 40.3581 2.61206 26.8235C2.61206 13.2889 13.593 2.30794 27.1276 2.30794C40.6622 2.30794 51.6006 13.2463 51.6006 26.7809C51.6006 40.3581 40.6622 51.3391 27.1276 51.3391Z" fill="#32352C"/>
<defs>
<linearGradient id="paint0_linear_1_31" x1="4.87269" y1="26.7995" x2="49.3677" y2="26.7995" gradientUnits="userSpaceOnUse">
<stop stop-color="#FFBA3B"/>
<stop offset="0.5315" stop-color="#FFA53B"/>
<stop offset="1" stop-color="#FF983B"/>
</linearGradient>
</defs>
</svg>
